<svg xmlns="http://www.w3.org/2000/svg" xmlns:xlink="http://www.w3.org/1999/xlink" width="500" zoomAndPan="magnify" viewBox="0 0 375 374.999991" height="500" preserveAspectRatio="xMidYMid meet" version="1.0"><defs><g/></defs><g fill="#004d24" fill-opacity="1"><g transform="translate(92.04377, 182.212195)"><g><path d="M 13.453125 -11.203125 L 13.453125 0 L 12.3125 0 L 12.3125 -8.953125 L 7.921875 -1.421875 L 7.359375 -1.421875 L 2.953125 -8.90625 L 2.953125 0 L 1.828125 0 L 1.828125 -11.203125 L 2.796875 -11.203125 L 7.65625 -2.890625 L 12.484375 -11.203125 Z M 13.453125 -11.203125 "/></g></g></g><g fill="#004d24" fill-opacity="1"><g transform="translate(114.52012, 182.212195)"><g><path d="M 8.84375 -2.984375 L 2.609375 -2.984375 L 1.265625 0 L 0.03125 0 L 5.15625 -11.203125 L 6.3125 -11.203125 L 11.4375 0 L 10.1875 0 Z M 8.421875 -3.953125 L 5.734375 -9.96875 L 3.046875 -3.953125 Z M 8.421875 -3.953125 "/></g></g></g><g fill="#004d24" fill-opacity="1"><g transform="translate(133.189386, 182.212195)"><g><path d="M 1.828125 -11.203125 L 6.390625 -11.203125 C 7.566406 -11.203125 8.609375 -10.960938 9.515625 -10.484375 C 10.421875 -10.015625 11.125 -9.351562 11.625 -8.5 C 12.132812 -7.65625 12.390625 -6.6875 12.390625 -5.59375 C 12.390625 -4.507812 12.132812 -3.539062 11.625 -2.6875 C 11.125 -1.84375 10.421875 -1.179688 9.515625 -0.703125 C 8.609375 -0.234375 7.566406 0 6.390625 0 L 1.828125 0 Z M 6.3125 -1.03125 C 7.300781 -1.03125 8.160156 -1.222656 8.890625 -1.609375 C 9.628906 -1.992188 10.203125 -2.53125 10.609375 -3.21875 C 11.015625 -3.90625 11.21875 -4.695312 11.21875 -5.59375 C 11.21875 -6.488281 11.015625 -7.28125 10.609375 -7.96875 C 10.203125 -8.664062 9.628906 -9.207031 8.890625 -9.59375 C 8.160156 -9.976562 7.300781 -10.171875 6.3125 -10.171875 L 3.015625 -10.171875 L 3.015625 -1.03125 Z M 6.3125 -1.03125 "/></g></g></g><g fill="#004d24" fill-opacity="1"><g transform="translate(153.602229, 182.212195)"><g><path d="M 8.84375 -2.984375 L 2.609375 -2.984375 L 1.265625 0 L 0.03125 0 L 5.15625 -11.203125 L 6.3125 -11.203125 L 11.4375 0 L 10.1875 0 Z M 8.421875 -3.953125 L 5.734375 -9.96875 L 3.046875 -3.953125 Z M 8.421875 -3.953125 "/></g></g></g><g fill="#058743" fill-opacity="1"><g transform="translate(151.407827, 210.037304)"><g><path d="M 10.296875 4.296875 C 10.097656 4.234375 10.03125 4.035156 10.09375 3.703125 C 10.226562 3.296875 10.332031 3.09375 10.40625 3.09375 C 10.53125 3.03125 10.859375 2.679688 11.390625 2.046875 C 11.929688 1.410156 12.4375 0.796875 12.90625 0.203125 L 13.90625 -1 L 15.203125 -2.40625 C 15.796875 -3 16.625 -3.878906 17.6875 -5.046875 C 18.757812 -6.210938 19.53125 -7.097656 20 -7.703125 C 20.332031 -8.171875 20.664062 -8.503906 21 -8.703125 L 21.796875 -9.59375 L 22.5 -10.59375 L 23.5 -11.59375 L 24.296875 -12.5 L 24.90625 -13.296875 C 25.164062 -13.628906 25.394531 -13.863281 25.59375 -14 C 25.800781 -14.195312 25.90625 -14.332031 25.90625 -14.40625 C 25.90625 -14.46875 26.269531 -14.863281 27 -15.59375 C 27.269531 -15.863281 27.503906 -16.097656 27.703125 -16.296875 C 27.898438 -16.492188 28 -16.628906 28 -16.703125 C 28 -16.765625 28.082031 -16.863281 28.25 -17 C 28.414062 -17.132812 28.597656 -17.300781 28.796875 -17.5 C 28.929688 -17.695312 29.082031 -17.878906 29.25 -18.046875 C 29.414062 -18.210938 29.5 -18.296875 29.5 -18.296875 C 29.5 -18.367188 29.664062 -18.570312 30 -18.90625 C 30.394531 -19.300781 30.910156 -19.816406 31.546875 -20.453125 C 32.179688 -21.085938 32.53125 -21.503906 32.59375 -21.703125 C 32.800781 -21.898438 32.835938 -22.066406 32.703125 -22.203125 L 32.40625 -22.296875 C 32.195312 -22.367188 32.023438 -22.570312 31.890625 -22.90625 C 31.765625 -23.238281 31.734375 -23.570312 31.796875 -23.90625 C 31.929688 -24.300781 32.03125 -24.53125 32.09375 -24.59375 C 32.09375 -24.59375 32.109375 -24.609375 32.140625 -24.640625 C 32.179688 -24.679688 32.203125 -24.734375 32.203125 -24.796875 C 32.203125 -24.929688 32.46875 -25.265625 33 -25.796875 L 34.09375 -26.90625 C 34.226562 -27.101562 34.628906 -27.453125 35.296875 -27.953125 C 35.960938 -28.453125 36.613281 -28.914062 37.25 -29.34375 C 37.882812 -29.78125 38.234375 -30 38.296875 -30 L 40.09375 -31 C 40.695312 -31.269531 41.066406 -31.535156 41.203125 -31.796875 L 41.59375 -32.203125 C 41.59375 -32.203125 41.726562 -32.398438 42 -32.796875 C 42.132812 -32.992188 42.300781 -33.195312 42.5 -33.40625 L 55.796875 -48.203125 C 55.929688 -48.335938 56.265625 -48.6875 56.796875 -49.25 C 57.328125 -49.8125 57.628906 -50.160156 57.703125 -50.296875 C 57.703125 -50.367188 57.632812 -50.367188 57.5 -50.296875 C 57.363281 -50.234375 57.296875 -50.203125 57.296875 -50.203125 C 57.160156 -50.203125 57.09375 -50.164062 57.09375 -50.09375 C 56.96875 -49.96875 56.867188 -49.90625 56.796875 -49.90625 C 56.796875 -49.90625 56.664062 -49.835938 56.40625 -49.703125 L 56.09375 -49.5 C 55.894531 -49.363281 55.445312 -49.007812 54.75 -48.4375 C 54.050781 -47.875 53.203125 -47.226562 52.203125 -46.5 C 51.734375 -46.164062 51.5 -45.96875 51.5 -45.90625 C 51.5 -45.90625 51.414062 -45.820312 51.25 -45.65625 C 51.082031 -45.488281 50.898438 -45.335938 50.703125 -45.203125 L 49.90625 -44.40625 C 49.90625 -44.332031 49.835938 -44.226562 49.703125 -44.09375 C 49.503906 -44.03125 49.21875 -43.75 48.84375 -43.25 C 48.476562 -42.75 48.296875 -42.398438 48.296875 -42.203125 C 48.234375 -42.003906 48.097656 -41.921875 47.890625 -41.953125 C 47.691406 -41.984375 47.628906 -42.066406 47.703125 -42.203125 C 47.835938 -43.460938 48.335938 -44.425781 49.203125 -45.09375 C 49.398438 -45.300781 49.53125 -45.40625 49.59375 -45.40625 L 49.90625 -45.703125 C 50.03125 -45.835938 50.160156 -45.953125 50.296875 -46.046875 C 50.429688 -46.148438 50.53125 -46.269531 50.59375 -46.40625 C 50.925781 -46.738281 51.410156 -47.132812 52.046875 -47.59375 C 52.679688 -48.0625 54.03125 -49.03125 56.09375 -50.5 L 57 -51.203125 C 57 -51.203125 57.132812 -51.269531 57.40625 -51.40625 C 57.40625 -51.40625 57.503906 -51.503906 57.703125 -51.703125 L 58 -51.796875 L 58.5 -52.09375 C 58.632812 -52.164062 58.734375 -52.234375 58.796875 -52.296875 C 58.867188 -52.367188 58.9375 -52.4375 59 -52.5 C 59 -52.5 59.132812 -52.566406 59.40625 -52.703125 L 59.59375 -52.90625 L 60.296875 -53.296875 C 60.367188 -53.367188 60.4375 -53.4375 60.5 -53.5 C 60.5625 -53.5625 60.628906 -53.628906 60.703125 -53.703125 L 61 -53.90625 C 61.132812 -53.90625 61.21875 -53.9375 61.25 -54 C 61.28125 -54.0625 61.332031 -54.128906 61.40625 -54.203125 L 61.796875 -54.5 C 61.929688 -54.832031 62.066406 -55.03125 62.203125 -55.09375 L 63.59375 -56.5 C 63.863281 -56.769531 64.164062 -57.117188 64.5 -57.546875 C 64.832031 -57.984375 65.132812 -58.332031 65.40625 -58.59375 L 66.40625 -59.90625 L 67.203125 -60.796875 C 67.398438 -60.992188 67.566406 -61.175781 67.703125 -61.34375 C 67.835938 -61.507812 67.90625 -61.59375 67.90625 -61.59375 C 67.90625 -61.664062 68.101562 -61.898438 68.5 -62.296875 L 73.296875 -68 L 74 -68.90625 C 74.132812 -69.101562 74.597656 -69.566406 75.390625 -70.296875 C 76.191406 -71.035156 76.660156 -71.4375 76.796875 -71.5 C 77.066406 -71.632812 77.132812 -71.75 77 -71.84375 C 76.863281 -71.945312 76.628906 -71.929688 76.296875 -71.796875 L 75 -71.59375 L 70.703125 -71 L 57.796875 -68.796875 L 55.09375 -68.296875 L 53.203125 -68 L 51.5 -67.59375 C 50.832031 -67.53125 50.195312 -67.429688 49.59375 -67.296875 C 49 -67.160156 47.9375 -66.925781 46.40625 -66.59375 C 43.9375 -66.132812 41.832031 -65.6875 40.09375 -65.25 C 38.363281 -64.8125 37.03125 -64.425781 36.09375 -64.09375 C 35.695312 -63.894531 35.332031 -63.796875 35 -63.796875 C 34.726562 -63.796875 34.492188 -63.695312 34.296875 -63.5 C 33.960938 -63.363281 33.597656 -63.226562 33.203125 -63.09375 C 32.597656 -62.96875 32.007812 -62.820312 31.4375 -62.65625 C 30.875 -62.488281 30.328125 -62.269531 29.796875 -62 L 28.5 -61.59375 C 28.4375 -61.53125 28.320312 -61.484375 28.15625 -61.453125 C 27.988281 -61.421875 27.835938 -61.335938 27.703125 -61.203125 L 25.90625 -60.40625 C 25.570312 -60.269531 25.050781 -60 24.34375 -59.59375 C 23.644531 -59.195312 22.992188 -58.832031 22.390625 -58.5 C 21.796875 -58.164062 21.429688 -57.929688 21.296875 -57.796875 L 20.5 -57.296875 C 19.96875 -56.960938 19.453125 -56.492188 18.953125 -55.890625 C 18.453125 -55.296875 18.234375 -54.898438 18.296875 -54.703125 C 18.429688 -54.628906 18.445312 -54.507812 18.34375 -54.34375 C 18.25 -54.175781 18.132812 -54.09375 18 -54.09375 C 17.800781 -54.09375 17.664062 -54.226562 17.59375 -54.5 C 17.53125 -54.769531 17.53125 -55.070312 17.59375 -55.40625 C 17.664062 -55.738281 17.734375 -55.90625 17.796875 -55.90625 C 17.796875 -55.90625 17.8125 -55.921875 17.84375 -55.953125 C 17.882812 -55.984375 17.90625 -56.03125 17.90625 -56.09375 C 17.90625 -56.5 18.570312 -57.203125 19.90625 -58.203125 L 21.296875 -59.09375 L 22.703125 -59.90625 C 23.628906 -60.363281 24.160156 -60.59375 24.296875 -60.59375 C 24.492188 -60.59375 24.628906 -60.695312 24.703125 -60.90625 L 26.5 -61.59375 C 27.4375 -61.925781 27.96875 -62.160156 28.09375 -62.296875 C 28.226562 -62.429688 28.394531 -62.5 28.59375 -62.5 L 29.203125 -62.703125 L 29.796875 -63 L 31.296875 -63.5 C 31.828125 -63.632812 32.675781 -63.882812 33.84375 -64.25 C 35.007812 -64.613281 35.726562 -64.832031 36 -64.90625 L 39.796875 -65.90625 L 40.796875 -66.203125 L 46.203125 -67.40625 L 55.203125 -69.203125 L 57 -69.5 L 58.5 -69.796875 L 67.59375 -71.296875 L 71.59375 -72.09375 C 72.664062 -72.300781 73.429688 -72.4375 73.890625 -72.5 C 74.359375 -72.5625 74.789062 -72.625 75.1875 -72.6875 C 75.59375 -72.757812 76.164062 -72.863281 76.90625 -73 C 77.4375 -73.0625 77.898438 -73.125 78.296875 -73.1875 C 78.703125 -73.257812 78.90625 -73.332031 78.90625 -73.40625 C 79.300781 -73.664062 79.632812 -73.597656 79.90625 -73.203125 C 80.238281 -72.671875 80.003906 -72.171875 79.203125 -71.703125 C 78.597656 -71.367188 77.992188 -70.953125 77.390625 -70.453125 C 76.796875 -69.953125 76.265625 -69.4375 75.796875 -68.90625 C 74.929688 -68.03125 74.097656 -67.109375 73.296875 -66.140625 C 72.492188 -65.179688 71.925781 -64.46875 71.59375 -64 C 71.46875 -63.726562 71.253906 -63.457031 70.953125 -63.1875 C 70.648438 -62.925781 70.429688 -62.695312 70.296875 -62.5 L 69.296875 -61.40625 C 68.898438 -60.9375 68.484375 -60.453125 68.046875 -59.953125 C 67.617188 -59.453125 67.335938 -59.164062 67.203125 -59.09375 C 67.203125 -59.09375 67.179688 -59.078125 67.140625 -59.046875 C 67.109375 -59.015625 67.09375 -58.96875 67.09375 -58.90625 C 67.09375 -58.832031 66.828125 -58.460938 66.296875 -57.796875 C 65.765625 -57.128906 65.429688 -56.726562 65.296875 -56.59375 C 65.234375 -56.59375 65.203125 -56.578125 65.203125 -56.546875 C 65.203125 -56.515625 65.234375 -56.5 65.296875 -56.5 C 65.367188 -56.5 65.785156 -56.664062 66.546875 -57 C 67.316406 -57.332031 67.734375 -57.53125 67.796875 -57.59375 L 69.40625 -58.296875 C 71.132812 -58.960938 72.378906 -59.445312 73.140625 -59.75 C 73.910156 -60.050781 74.296875 -60.234375 74.296875 -60.296875 C 74.296875 -60.367188 74.3125 -60.40625 74.34375 -60.40625 C 74.382812 -60.40625 74.40625 -60.367188 74.40625 -60.296875 C 74.601562 -60.296875 74.734375 -60.332031 74.796875 -60.40625 C 74.929688 -60.53125 75.097656 -60.59375 75.296875 -60.59375 C 75.429688 -60.53125 75.632812 -60.566406 75.90625 -60.703125 C 75.96875 -60.765625 76.066406 -60.8125 76.203125 -60.84375 C 76.335938 -60.882812 76.4375 -60.9375 76.5 -61 L 80.5 -62.09375 L 82.59375 -62.703125 L 84.203125 -63.09375 C 84.734375 -63.226562 85.210938 -63.363281 85.640625 -63.5 C 86.078125 -63.632812 86.695312 -63.734375 87.5 -63.796875 C 88.164062 -63.929688 88.53125 -64.03125 88.59375 -64.09375 C 88.726562 -64.164062 89.144531 -64.132812 89.84375 -64 C 90.550781 -63.863281 91.003906 -63.726562 91.203125 -63.59375 C 92.265625 -62.863281 92.03125 -61.03125 90.5 -58.09375 L 89.703125 -56.59375 C 89.296875 -55.726562 88.992188 -55.128906 88.796875 -54.796875 C 88.597656 -54.460938 88.234375 -53.960938 87.703125 -53.296875 L 86.203125 -51.5 C 86.003906 -51.226562 85.738281 -50.910156 85.40625 -50.546875 C 85.070312 -50.179688 84.738281 -49.863281 84.40625 -49.59375 L 83.40625 -48.703125 C 83.195312 -48.503906 82.578125 -48.003906 81.546875 -47.203125 C 80.515625 -46.398438 79.332031 -45.53125 78 -44.59375 C 76.726562 -43.664062 75.644531 -42.847656 74.75 -42.140625 C 73.851562 -41.441406 73.40625 -41.0625 73.40625 -41 C 73.40625 -40.9375 73.46875 -40.90625 73.59375 -40.90625 C 73.726562 -40.96875 73.945312 -40.847656 74.25 -40.546875 C 74.550781 -40.242188 74.664062 -40.03125 74.59375 -39.90625 C 74.59375 -39.832031 74.492188 -39.710938 74.296875 -39.546875 C 74.097656 -39.378906 73.929688 -39.332031 73.796875 -39.40625 C 73.597656 -39.40625 73.398438 -39.503906 73.203125 -39.703125 C 73.003906 -39.835938 72.632812 -39.90625 72.09375 -39.90625 C 71.832031 -39.832031 71.515625 -39.695312 71.140625 -39.5 C 70.773438 -39.300781 70.195312 -38.898438 69.40625 -38.296875 C 68.863281 -37.898438 68.375 -37.566406 67.9375 -37.296875 C 67.507812 -37.035156 67.296875 -36.90625 67.296875 -36.90625 L 65.90625 -36 C 64.832031 -35.269531 64.144531 -34.785156 63.84375 -34.546875 C 63.550781 -34.316406 63.171875 -34.101562 62.703125 -33.90625 L 61.703125 -33.296875 C 61.566406 -33.160156 61.082031 -32.84375 60.25 -32.34375 C 59.414062 -31.84375 58.863281 -31.53125 58.59375 -31.40625 L 57.296875 -30.796875 L 51.296875 -27.90625 L 50.59375 -27.59375 L 45.09375 -25.296875 L 43.90625 -24.90625 C 43.4375 -24.632812 42.515625 -24.265625 41.140625 -23.796875 C 39.773438 -23.328125 38.796875 -23.03125 38.203125 -22.90625 C 37.671875 -22.769531 37.15625 -22.648438 36.65625 -22.546875 C 36.15625 -22.453125 35.835938 -22.4375 35.703125 -22.5 C 35.503906 -22.5 35.21875 -22.332031 34.84375 -22 C 34.476562 -21.664062 33.5625 -20.695312 32.09375 -19.09375 L 29.09375 -15.90625 L 28.59375 -15.296875 L 27.296875 -13.90625 C 26.628906 -13.238281 26.0625 -12.632812 25.59375 -12.09375 C 25.132812 -11.5625 24.632812 -10.929688 24.09375 -10.203125 C 23.632812 -9.734375 22.96875 -9 22.09375 -8 C 21.226562 -7 20.410156 -6.066406 19.640625 -5.203125 C 18.878906 -4.335938 18.398438 -3.800781 18.203125 -3.59375 L 17.59375 -3 L 16.203125 -1.40625 C 15.929688 -1.132812 15.613281 -0.816406 15.25 -0.453125 C 14.882812 -0.0859375 14.601562 0.226562 14.40625 0.5 C 14.070312 0.96875 13.519531 1.566406 12.75 2.296875 C 11.976562 3.035156 11.394531 3.570312 11 3.90625 C 10.726562 4.164062 10.492188 4.296875 10.296875 4.296875 Z M 44.40625 -33.40625 C 44.46875 -33.269531 44.664062 -33.265625 45 -33.390625 C 45.332031 -33.523438 45.53125 -33.59375 45.59375 -33.59375 C 45.925781 -33.800781 46.328125 -33.988281 46.796875 -34.15625 C 47.265625 -34.320312 47.53125 -34.367188 47.59375 -34.296875 C 47.664062 -34.296875 47.734375 -34.3125 47.796875 -34.34375 C 47.867188 -34.382812 47.90625 -34.40625 47.90625 -34.40625 C 47.90625 -34.53125 47.988281 -34.625 48.15625 -34.6875 C 48.320312 -34.757812 48.703125 -34.894531 49.296875 -35.09375 C 49.628906 -35.226562 49.796875 -35.332031 49.796875 -35.40625 C 49.796875 -35.40625 49.863281 -35.421875 50 -35.453125 C 50.132812 -35.484375 50.234375 -35.5 50.296875 -35.5 C 50.628906 -35.5 51.128906 -35.632812 51.796875 -35.90625 C 52.398438 -36.101562 53.265625 -36.382812 54.390625 -36.75 C 55.523438 -37.113281 56.59375 -37.445312 57.59375 -37.75 C 58.59375 -38.050781 59.128906 -38.203125 59.203125 -38.203125 C 59.460938 -38.203125 59.660156 -38.234375 59.796875 -38.296875 C 60.203125 -38.429688 60.65625 -38.582031 61.15625 -38.75 C 61.65625 -38.914062 62.203125 -39.03125 62.796875 -39.09375 L 68.5 -40.203125 C 69.832031 -40.460938 70.597656 -40.695312 70.796875 -40.90625 C 71.398438 -41.300781 72.066406 -41.75 72.796875 -42.25 C 73.535156 -42.75 74.101562 -43.164062 74.5 -43.5 L 77.296875 -45.59375 L 79.5 -47.296875 C 80.632812 -48.160156 81.300781 -48.675781 81.5 -48.84375 C 81.695312 -49.007812 81.796875 -49.128906 81.796875 -49.203125 C 81.796875 -49.335938 81.863281 -49.40625 82 -49.40625 C 82.132812 -49.40625 82.332031 -49.519531 82.59375 -49.75 C 82.863281 -49.976562 83.429688 -50.53125 84.296875 -51.40625 C 84.828125 -51.9375 85.34375 -52.5 85.84375 -53.09375 C 86.34375 -53.695312 86.59375 -54.03125 86.59375 -54.09375 L 87.203125 -55 C 87.535156 -55.46875 87.703125 -55.769531 87.703125 -55.90625 C 87.566406 -55.90625 87.632812 -55.96875 87.90625 -56.09375 C 87.96875 -56.164062 88.066406 -56.316406 88.203125 -56.546875 C 88.335938 -56.785156 88.46875 -57.035156 88.59375 -57.296875 L 89.90625 -60.09375 L 90.703125 -61.796875 L 90.5 -62.203125 C 90.363281 -62.535156 90.03125 -62.734375 89.5 -62.796875 C 88.832031 -62.929688 88.097656 -62.929688 87.296875 -62.796875 C 86.492188 -62.660156 85.296875 -62.363281 83.703125 -61.90625 L 82.296875 -61.5 C 81.898438 -61.4375 81.332031 -61.300781 80.59375 -61.09375 C 79.863281 -60.894531 79.210938 -60.710938 78.640625 -60.546875 C 78.078125 -60.378906 77.765625 -60.265625 77.703125 -60.203125 L 77.09375 -60 C 76.632812 -59.863281 75.96875 -59.644531 75.09375 -59.34375 C 74.226562 -59.050781 73.597656 -58.835938 73.203125 -58.703125 L 71.703125 -58.09375 C 71.296875 -58.03125 70.925781 -57.863281 70.59375 -57.59375 C 70.394531 -57.53125 70.296875 -57.5 70.296875 -57.5 C 70.296875 -57.5625 69.945312 -57.425781 69.25 -57.09375 C 68.550781 -56.757812 67.785156 -56.394531 66.953125 -56 C 66.117188 -55.601562 65.5 -55.300781 65.09375 -55.09375 C 63.757812 -54.300781 62.875 -53.738281 62.4375 -53.40625 C 62.007812 -53.070312 61.53125 -52.632812 61 -52.09375 C 60.332031 -51.425781 59.710938 -50.773438 59.140625 -50.140625 C 58.578125 -49.515625 58.296875 -49.132812 58.296875 -49 C 58.160156 -48.863281 58.03125 -48.765625 57.90625 -48.703125 C 57.832031 -48.628906 57.757812 -48.539062 57.6875 -48.4375 C 57.625 -48.34375 57.5625 -48.265625 57.5 -48.203125 C 57.5 -48.128906 57.484375 -48.078125 57.453125 -48.046875 C 57.421875 -48.015625 57.40625 -48.03125 57.40625 -48.09375 C 57.269531 -48.09375 57.203125 -48.03125 57.203125 -47.90625 C 57.203125 -47.832031 57.097656 -47.695312 56.890625 -47.5 C 56.691406 -47.300781 56.460938 -47.066406 56.203125 -46.796875 L 55.203125 -45.796875 L 54.296875 -44.703125 L 51.90625 -42 C 50.4375 -40.269531 49.265625 -38.953125 48.390625 -38.046875 C 47.523438 -37.148438 47.03125 -36.632812 46.90625 -36.5 C 46.832031 -36.4375 46.757812 -36.367188 46.6875 -36.296875 C 46.625 -36.234375 46.59375 -36.164062 46.59375 -36.09375 C 46.59375 -36.09375 46.507812 -35.976562 46.34375 -35.75 C 46.175781 -35.519531 45.925781 -35.238281 45.59375 -34.90625 L 45.09375 -34.296875 L 44.90625 -34 L 44.703125 -33.90625 L 44.5 -33.703125 C 44.5 -33.628906 44.484375 -33.578125 44.453125 -33.546875 C 44.421875 -33.515625 44.40625 -33.46875 44.40625 -33.40625 Z M 36.296875 -23.5 C 36.367188 -23.4375 36.703125 -23.453125 37.296875 -23.546875 C 37.898438 -23.648438 38.269531 -23.734375 38.40625 -23.796875 C 38.601562 -23.992188 38.734375 -24.03125 38.796875 -23.90625 C 38.867188 -23.90625 39.019531 -23.953125 39.25 -24.046875 C 39.476562 -24.148438 39.726562 -24.234375 40 -24.296875 L 42.59375 -25.203125 L 44.5 -25.90625 C 44.695312 -26.101562 44.894531 -26.203125 45.09375 -26.203125 C 45.164062 -26.203125 45.332031 -26.269531 45.59375 -26.40625 C 45.800781 -26.601562 46.003906 -26.703125 46.203125 -26.703125 C 46.398438 -26.703125 46.765625 -26.832031 47.296875 -27.09375 L 50.09375 -28.40625 L 52 -29.203125 C 52.195312 -29.203125 52.429688 -29.300781 52.703125 -29.5 C 53.035156 -29.769531 53.632812 -30.070312 54.5 -30.40625 L 56.296875 -31.296875 L 58 -32.296875 L 59.59375 -33.09375 L 61.40625 -34.296875 C 62 -34.703125 62.445312 -34.988281 62.75 -35.15625 C 63.050781 -35.320312 63.398438 -35.550781 63.796875 -35.84375 C 64.203125 -36.144531 64.90625 -36.628906 65.90625 -37.296875 C 66.96875 -38.035156 67.628906 -38.519531 67.890625 -38.75 C 68.160156 -38.976562 68.195312 -39.09375 68 -39.09375 C 67.800781 -39.226562 67.632812 -39.226562 67.5 -39.09375 C 67.363281 -38.96875 67 -38.90625 66.40625 -38.90625 L 64.796875 -38.59375 L 64.203125 -38.40625 L 63 -38.09375 L 62.59375 -38.09375 L 60.703125 -37.703125 L 59.90625 -37.5 L 59.40625 -37.40625 C 59.132812 -37.332031 58.566406 -37.160156 57.703125 -36.890625 C 56.835938 -36.628906 56.335938 -36.5 56.203125 -36.5 L 54.796875 -36.09375 L 53.09375 -35.5 C 51.894531 -35.101562 50.710938 -34.703125 49.546875 -34.296875 C 48.378906 -33.898438 47.5 -33.535156 46.90625 -33.203125 L 45.90625 -32.796875 C 45.832031 -32.796875 45.546875 -32.675781 45.046875 -32.4375 C 44.546875 -32.207031 44.0625 -31.976562 43.59375 -31.75 C 43.132812 -31.519531 42.835938 -31.367188 42.703125 -31.296875 C 42.628906 -31.234375 42.457031 -31.066406 42.1875 -30.796875 C 41.925781 -30.535156 41.695312 -30.238281 41.5 -29.90625 C 40.632812 -28.769531 39.535156 -27.5 38.203125 -26.09375 C 37.796875 -25.695312 37.53125 -25.332031 37.40625 -25 L 36.59375 -24.09375 C 36.332031 -23.695312 36.234375 -23.5 36.296875 -23.5 Z M 33.59375 -23.296875 C 34.0625 -23.296875 34.296875 -23.363281 34.296875 -23.5 C 34.296875 -23.5625 34.429688 -23.726562 34.703125 -24 L 38.703125 -28.703125 C 39.035156 -29.035156 39.203125 -29.269531 39.203125 -29.40625 C 39.128906 -29.46875 38.957031 -29.398438 38.6875 -29.203125 C 38.425781 -29.003906 38.265625 -28.867188 38.203125 -28.796875 L 37.796875 -28.59375 L 37.40625 -28.296875 C 37.132812 -28.097656 36.847656 -27.898438 36.546875 -27.703125 C 36.242188 -27.503906 35.960938 -27.269531 35.703125 -27 C 35.429688 -26.726562 35.144531 -26.476562 34.84375 -26.25 C 34.550781 -26.019531 34.269531 -25.738281 34 -25.40625 C 33.332031 -24.664062 32.960938 -24.144531 32.890625 -23.84375 C 32.828125 -23.550781 33.0625 -23.367188 33.59375 -23.296875 Z M 33.59375 -23.296875 "/></g></g></g><g fill="#058743" fill-opacity="1"><g transform="translate(224.305017, 210.037304)"><g><path d="M 2.203125 -27.296875 C 1.867188 -27.296875 1.601562 -27.460938 1.40625 -27.796875 C 1.132812 -28.128906 1.066406 -28.5 1.203125 -28.90625 C 1.203125 -29.300781 1.300781 -29.632812 1.5 -29.90625 L 1.796875 -30.59375 C 1.796875 -30.664062 1.546875 -30.550781 1.046875 -30.25 C 0.546875 -29.945312 0.0976562 -29.628906 -0.296875 -29.296875 C -0.703125 -29.035156 -1.285156 -28.703125 -2.046875 -28.296875 C -2.816406 -27.898438 -3.332031 -27.703125 -3.59375 -27.703125 C -4.195312 -27.703125 -4.5 -27.898438 -4.5 -28.296875 C -4.5 -28.492188 -4.265625 -28.796875 -3.796875 -29.203125 C -3.203125 -29.734375 -2.46875 -30.265625 -1.59375 -30.796875 C -0.726562 -31.328125 0.0664062 -31.796875 0.796875 -32.203125 C 1.660156 -32.671875 2.207031 -32.9375 2.4375 -33 C 2.675781 -33.0625 2.832031 -32.992188 2.90625 -32.796875 C 2.90625 -32.660156 3.070312 -32.59375 3.40625 -32.59375 C 4 -32.59375 4.160156 -32.375 3.890625 -31.9375 C 3.628906 -31.507812 3.398438 -31.164062 3.203125 -30.90625 C 2.929688 -30.632812 2.675781 -30.25 2.4375 -29.75 C 2.207031 -29.25 2.195312 -28.765625 2.40625 -28.296875 C 2.46875 -28.097656 2.710938 -28.046875 3.140625 -28.140625 C 3.578125 -28.242188 3.796875 -28.296875 3.796875 -28.296875 C 4.460938 -28.429688 5.53125 -28.796875 7 -29.390625 C 8.46875 -29.992188 10.300781 -30.765625 12.5 -31.703125 L 12.703125 -31.796875 L 13 -31.796875 L 13.09375 -31.703125 C 13.226562 -31.628906 13.296875 -31.539062 13.296875 -31.4375 C 13.296875 -31.34375 13.226562 -31.265625 13.09375 -31.203125 L 7.40625 -28.59375 C 6.46875 -28.132812 5.613281 -27.800781 4.84375 -27.59375 C 4.082031 -27.394531 3.703125 -27.296875 3.703125 -27.296875 L 3.40625 -27.296875 C 3 -27.234375 2.597656 -27.234375 2.203125 -27.296875 Z M -3.40625 -28.59375 L -2.796875 -28.796875 C -2.398438 -28.992188 -1.867188 -29.289062 -1.203125 -29.6875 C -0.535156 -30.09375 -0.164062 -30.332031 -0.09375 -30.40625 C 0.164062 -30.664062 0.628906 -30.960938 1.296875 -31.296875 C 1.703125 -31.429688 1.90625 -31.566406 1.90625 -31.703125 C 1.90625 -31.835938 1.835938 -31.882812 1.703125 -31.84375 C 1.566406 -31.8125 1.234375 -31.628906 0.703125 -31.296875 C 0.0351562 -31.035156 -0.628906 -30.671875 -1.296875 -30.203125 C -1.960938 -29.734375 -2.460938 -29.332031 -2.796875 -29 Z M -3.40625 -28.59375 "/></g></g></g><g fill="#058743" fill-opacity="1"><g transform="translate(237.104523, 210.037304)"><g><path d="M -4.40625 -20.59375 C -4.53125 -20.664062 -4.625 -20.785156 -4.6875 -20.953125 C -4.757812 -21.117188 -4.832031 -21.46875 -4.90625 -22 C -4.96875 -22.53125 -4.929688 -23.175781 -4.796875 -23.9375 C -4.660156 -24.707031 -4.460938 -25.257812 -4.203125 -25.59375 C -4.066406 -26 -4 -26.234375 -4 -26.296875 C -3.9375 -26.429688 -3.867188 -26.582031 -3.796875 -26.75 C -3.734375 -26.914062 -3.601562 -27.132812 -3.40625 -27.40625 C -3.132812 -27.738281 -2.878906 -28.101562 -2.640625 -28.5 C -2.410156 -28.894531 -2.296875 -29.128906 -2.296875 -29.203125 C -2.296875 -29.265625 -2.28125 -29.3125 -2.25 -29.34375 C -2.21875 -29.382812 -2.203125 -29.367188 -2.203125 -29.296875 C -2.066406 -29.296875 -2 -29.394531 -2 -29.59375 C -2 -29.726562 -1.929688 -29.796875 -1.796875 -29.796875 C -1.734375 -29.796875 -1.703125 -29.863281 -1.703125 -30 L -1.40625 -30.296875 C -1.269531 -30.296875 -1.164062 -30.394531 -1.09375 -30.59375 C -1.09375 -30.800781 -1.0625 -30.90625 -1 -30.90625 L -0.203125 -31.90625 C 0.265625 -32.5 0.53125 -32.796875 0.59375 -32.796875 C 0.664062 -32.796875 0.703125 -32.863281 0.703125 -33 C 0.703125 -33.0625 0.867188 -33.257812 1.203125 -33.59375 L 1.59375 -34.09375 C 1.59375 -34.226562 1.726562 -34.429688 2 -34.703125 L 1.796875 -34.703125 C 1.734375 -34.703125 1.597656 -34.800781 1.390625 -35 C 1.191406 -35.195312 1.09375 -35.332031 1.09375 -35.40625 C 1.09375 -35.601562 1.160156 -35.632812 1.296875 -35.5 C 1.429688 -35.4375 1.679688 -35.46875 2.046875 -35.59375 C 2.410156 -35.726562 2.59375 -35.832031 2.59375 -35.90625 C 2.59375 -35.90625 2.609375 -35.921875 2.640625 -35.953125 C 2.679688 -35.984375 2.734375 -35.96875 2.796875 -35.90625 C 2.796875 -35.90625 2.828125 -35.90625 2.890625 -35.90625 C 2.960938 -35.90625 3.03125 -35.9375 3.09375 -36 L 5.09375 -38 C 5.363281 -38.195312 5.945312 -38.726562 6.84375 -39.59375 C 7.75 -40.46875 8.46875 -41.132812 9 -41.59375 C 10.332031 -42.726562 11.664062 -43.828125 13 -44.890625 C 14.332031 -45.960938 15.632812 -46.96875 16.90625 -47.90625 C 17.363281 -48.238281 17.859375 -48.570312 18.390625 -48.90625 C 18.929688 -49.238281 19.4375 -49.535156 19.90625 -49.796875 C 20.300781 -50.128906 20.832031 -50.476562 21.5 -50.84375 C 22.164062 -51.21875 22.765625 -51.46875 23.296875 -51.59375 C 23.828125 -51.800781 24.242188 -51.820312 24.546875 -51.65625 C 24.847656 -51.488281 24.929688 -51.203125 24.796875 -50.796875 C 24.734375 -50.535156 24.367188 -50.050781 23.703125 -49.34375 C 23.035156 -48.644531 22.316406 -47.960938 21.546875 -47.296875 C 20.785156 -46.628906 20.132812 -46.097656 19.59375 -45.703125 L 17.09375 -43.703125 L 15.796875 -42.703125 L 14.703125 -41.90625 L 13.703125 -41.203125 C 13.566406 -41.128906 13.128906 -40.859375 12.390625 -40.390625 C 11.660156 -39.929688 11.128906 -39.566406 10.796875 -39.296875 C 10.535156 -39.035156 10.203125 -38.785156 9.796875 -38.546875 C 9.398438 -38.316406 9.164062 -38.203125 9.09375 -38.203125 L 8.203125 -37.59375 C 7.796875 -37.332031 7.492188 -37.132812 7.296875 -37 C 7.097656 -36.863281 6.765625 -36.664062 6.296875 -36.40625 L 4.5 -35.203125 C 4.226562 -35.066406 4.03125 -34.929688 3.90625 -34.796875 C 3.90625 -34.734375 3.835938 -34.632812 3.703125 -34.5 C 3.628906 -34.5 3.242188 -34.046875 2.546875 -33.140625 C 1.847656 -32.242188 1.082031 -31.242188 0.25 -30.140625 C -0.582031 -29.046875 -1.234375 -28.164062 -1.703125 -27.5 C -3.035156 -25.5 -3.800781 -23.734375 -4 -22.203125 C -4.195312 -21.128906 -4.332031 -20.59375 -4.40625 -20.59375 Z M 6.5 -37.5 L 8.40625 -38.59375 L 8.796875 -38.90625 C 8.992188 -39.03125 9.410156 -39.3125 10.046875 -39.75 C 10.679688 -40.1875 11.132812 -40.535156 11.40625 -40.796875 C 11.601562 -40.929688 11.929688 -41.164062 12.390625 -41.5 C 12.859375 -41.832031 13.195312 -42.03125 13.40625 -42.09375 C 13.601562 -42.226562 14.132812 -42.613281 15 -43.25 C 15.863281 -43.882812 16.5 -44.367188 16.90625 -44.703125 L 17.5 -45.09375 C 17.5625 -45.09375 18.0625 -45.492188 19 -46.296875 L 20.90625 -47.796875 L 22.296875 -49.09375 L 22.59375 -49.40625 L 22.796875 -49.703125 L 22.90625 -49.796875 L 23.203125 -50 L 23.203125 -50.09375 L 23.40625 -50.296875 C 23.46875 -50.367188 23.5 -50.421875 23.5 -50.453125 C 23.5 -50.484375 23.5 -50.5 23.5 -50.5 C 23.5 -50.769531 23.429688 -50.835938 23.296875 -50.703125 C 23.097656 -50.703125 22.96875 -50.664062 22.90625 -50.59375 L 22.703125 -50.5 L 22.203125 -50.203125 L 21.5 -49.796875 L 19.90625 -48.796875 L 19.296875 -48.40625 L 18.5 -47.703125 L 17 -46.703125 L 13.40625 -43.796875 C 13.332031 -43.796875 12.84375 -43.410156 11.9375 -42.640625 C 11.039062 -41.878906 10.109375 -41.066406 9.140625 -40.203125 C 8.179688 -39.335938 7.535156 -38.738281 7.203125 -38.40625 C 6.796875 -37.9375 6.539062 -37.648438 6.4375 -37.546875 C 6.34375 -37.453125 6.363281 -37.4375 6.5 -37.5 Z M 6.5 -37.5 "/></g></g></g><g fill="#058743" fill-opacity="1"><g transform="translate(245.904183, 210.037304)"><g><path d="M 2.203125 -27.296875 C 1.867188 -27.296875 1.601562 -27.460938 1.40625 -27.796875 C 1.132812 -28.128906 1.066406 -28.5 1.203125 -28.90625 C 1.203125 -29.300781 1.300781 -29.632812 1.5 -29.90625 L 1.796875 -30.59375 C 1.796875 -30.664062 1.546875 -30.550781 1.046875 -30.25 C 0.546875 -29.945312 0.0976562 -29.628906 -0.296875 -29.296875 C -0.703125 -29.035156 -1.285156 -28.703125 -2.046875 -28.296875 C -2.816406 -27.898438 -3.332031 -27.703125 -3.59375 -27.703125 C -4.195312 -27.703125 -4.5 -27.898438 -4.5 -28.296875 C -4.5 -28.492188 -4.265625 -28.796875 -3.796875 -29.203125 C -3.203125 -29.734375 -2.46875 -30.265625 -1.59375 -30.796875 C -0.726562 -31.328125 0.0664062 -31.796875 0.796875 -32.203125 C 1.660156 -32.671875 2.207031 -32.9375 2.4375 -33 C 2.675781 -33.0625 2.832031 -32.992188 2.90625 -32.796875 C 2.90625 -32.660156 3.070312 -32.59375 3.40625 -32.59375 C 4 -32.59375 4.160156 -32.375 3.890625 -31.9375 C 3.628906 -31.507812 3.398438 -31.164062 3.203125 -30.90625 C 2.929688 -30.632812 2.675781 -30.25 2.4375 -29.75 C 2.207031 -29.25 2.195312 -28.765625 2.40625 -28.296875 C 2.46875 -28.097656 2.710938 -28.046875 3.140625 -28.140625 C 3.578125 -28.242188 3.796875 -28.296875 3.796875 -28.296875 C 4.460938 -28.429688 5.53125 -28.796875 7 -29.390625 C 8.46875 -29.992188 10.300781 -30.765625 12.5 -31.703125 L 12.703125 -31.796875 L 13 -31.796875 L 13.09375 -31.703125 C 13.226562 -31.628906 13.296875 -31.539062 13.296875 -31.4375 C 13.296875 -31.34375 13.226562 -31.265625 13.09375 -31.203125 L 7.40625 -28.59375 C 6.46875 -28.132812 5.613281 -27.800781 4.84375 -27.59375 C 4.082031 -27.394531 3.703125 -27.296875 3.703125 -27.296875 L 3.40625 -27.296875 C 3 -27.234375 2.597656 -27.234375 2.203125 -27.296875 Z M -3.40625 -28.59375 L -2.796875 -28.796875 C -2.398438 -28.992188 -1.867188 -29.289062 -1.203125 -29.6875 C -0.535156 -30.09375 -0.164062 -30.332031 -0.09375 -30.40625 C 0.164062 -30.664062 0.628906 -30.960938 1.296875 -31.296875 C 1.703125 -31.429688 1.90625 -31.566406 1.90625 -31.703125 C 1.90625 -31.835938 1.835938 -31.882812 1.703125 -31.84375 C 1.566406 -31.8125 1.234375 -31.628906 0.703125 -31.296875 C 0.0351562 -31.035156 -0.628906 -30.671875 -1.296875 -30.203125 C -1.960938 -29.734375 -2.460938 -29.332031 -2.796875 -29 Z M -3.40625 -28.59375 "/></g></g></g><g fill="#058743" fill-opacity="1"><g transform="translate(258.703689, 210.037304)"><g><path d="M 2.296875 -23.796875 C 2.160156 -23.734375 1.992188 -23.75 1.796875 -23.84375 C 1.597656 -23.945312 1.46875 -24.132812 1.40625 -24.40625 C 1.40625 -24.53125 1.671875 -24.957031 2.203125 -25.6875 C 2.734375 -26.425781 3.398438 -27.28125 4.203125 -28.25 C 5.003906 -29.21875 5.753906 -30.117188 6.453125 -30.953125 C 7.148438 -31.785156 7.664062 -32.367188 8 -32.703125 C 8.269531 -32.898438 8.488281 -33.097656 8.65625 -33.296875 C 8.820312 -33.492188 8.90625 -33.59375 8.90625 -33.59375 C 8.832031 -33.59375 8.644531 -33.507812 8.34375 -33.34375 C 8.050781 -33.175781 7.671875 -32.960938 7.203125 -32.703125 L 3.796875 -30.59375 L 2.90625 -30.09375 L 1.90625 -29.59375 C 1.632812 -29.46875 1.414062 -29.335938 1.25 -29.203125 C 1.082031 -29.066406 0.96875 -29 0.90625 -29 L 0.5 -28.796875 C 0.101562 -28.535156 -0.425781 -28.238281 -1.09375 -27.90625 C -1.757812 -27.570312 -2.363281 -27.335938 -2.90625 -27.203125 C -3.4375 -27.003906 -3.765625 -27.035156 -3.890625 -27.296875 C -4.023438 -27.566406 -3.925781 -27.9375 -3.59375 -28.40625 C -3.195312 -29 -2.515625 -29.726562 -1.546875 -30.59375 C -0.578125 -31.46875 0.238281 -32.070312 0.90625 -32.40625 C 2.769531 -33.46875 4.035156 -33.566406 4.703125 -32.703125 L 5 -32.40625 L 5.703125 -32.796875 L 7.296875 -33.796875 C 7.566406 -33.929688 7.914062 -34.128906 8.34375 -34.390625 C 8.78125 -34.660156 9.234375 -34.894531 9.703125 -35.09375 C 11.429688 -35.96875 12.726562 -36.835938 13.59375 -37.703125 L 17.5 -41.703125 L 18.5 -42.703125 C 19.300781 -43.429688 19.867188 -43.960938 20.203125 -44.296875 C 20.535156 -44.628906 21 -45.128906 21.59375 -45.796875 C 22.332031 -46.597656 23.082031 -47.363281 23.84375 -48.09375 C 24.613281 -48.832031 25.234375 -49.332031 25.703125 -49.59375 L 27.40625 -50.90625 C 27.664062 -51.164062 27.976562 -51.425781 28.34375 -51.6875 C 28.71875 -51.957031 29.003906 -52.160156 29.203125 -52.296875 C 30.265625 -52.898438 30.832031 -52.9375 30.90625 -52.40625 C 30.96875 -52.132812 30.664062 -51.53125 30 -50.59375 C 29.195312 -49.53125 28 -48.195312 26.40625 -46.59375 C 25.9375 -46.0625 25.148438 -45.34375 24.046875 -44.4375 C 22.953125 -43.539062 22.101562 -42.894531 21.5 -42.5 L 20 -41.296875 C 19.726562 -41.035156 19.257812 -40.671875 18.59375 -40.203125 C 17.925781 -39.734375 17.425781 -39.398438 17.09375 -39.203125 L 15.59375 -38.09375 L 14.203125 -37 L 12.40625 -35.296875 C 11.53125 -34.628906 10.410156 -33.53125 9.046875 -32 C 7.679688 -30.46875 6.332031 -28.832031 5 -27.09375 Z M 18.203125 -40.59375 L 19.90625 -41.90625 L 21.5 -43.203125 C 21.832031 -43.460938 22.265625 -43.8125 22.796875 -44.25 C 23.328125 -44.6875 23.828125 -45.101562 24.296875 -45.5 C 25.492188 -46.632812 26.34375 -47.453125 26.84375 -47.953125 C 27.34375 -48.453125 27.828125 -49 28.296875 -49.59375 C 29.035156 -50.53125 29.285156 -50.960938 29.046875 -50.890625 C 28.816406 -50.828125 28.035156 -50.296875 26.703125 -49.296875 L 25.40625 -48.203125 L 24.59375 -47.40625 C 23.664062 -46.601562 22.898438 -45.800781 22.296875 -45 L 21 -43.703125 C 20 -42.835938 19.210938 -42.085938 18.640625 -41.453125 C 18.078125 -40.816406 17.929688 -40.53125 18.203125 -40.59375 Z M -1.90625 -28.703125 C -1.832031 -28.703125 -1.644531 -28.785156 -1.34375 -28.953125 C -1.050781 -29.117188 -0.738281 -29.300781 -0.40625 -29.5 C 0.53125 -29.96875 1.066406 -30.203125 1.203125 -30.203125 C 1.265625 -30.265625 1.378906 -30.34375 1.546875 -30.4375 C 1.710938 -30.539062 1.929688 -30.660156 2.203125 -30.796875 C 2.597656 -30.992188 2.910156 -31.226562 3.140625 -31.5 C 3.378906 -31.769531 3.429688 -31.9375 3.296875 -32 C 2.960938 -32.132812 2.5625 -32.132812 2.09375 -32 L 1.09375 -31.5 C 0.632812 -31.300781 0.335938 -31.132812 0.203125 -31 L -0.59375 -30.296875 C -1.0625 -29.898438 -1.425781 -29.535156 -1.6875 -29.203125 C -1.957031 -28.867188 -2.03125 -28.703125 -1.90625 -28.703125 Z M -1.90625 -28.703125 "/></g></g></g><g fill="#058743" fill-opacity="1"><g transform="translate(274.603079, 210.037304)"><g><path d="M -1 -27.296875 C -1.800781 -27.234375 -2.300781 -27.21875 -2.5 -27.25 C -2.695312 -27.28125 -2.832031 -27.460938 -2.90625 -27.796875 C -3.03125 -28.128906 -2.894531 -28.628906 -2.5 -29.296875 C -1.96875 -30.097656 -1.203125 -30.898438 -0.203125 -31.703125 C 0.796875 -32.503906 1.796875 -33.070312 2.796875 -33.40625 C 4.398438 -34 5.300781 -34.03125 5.5 -33.5 C 5.5625 -33.226562 4.828125 -32.5625 3.296875 -31.5 C 2.429688 -30.894531 1.710938 -30.441406 1.140625 -30.140625 C 0.578125 -29.847656 0.03125 -29.632812 -0.5 -29.5 C -1.101562 -29.363281 -1.46875 -29.128906 -1.59375 -28.796875 C -1.863281 -28.535156 -1.898438 -28.367188 -1.703125 -28.296875 C -1.097656 -28.097656 2.035156 -29.234375 7.703125 -31.703125 L 7.90625 -31.796875 L 8.203125 -31.796875 L 8.296875 -31.703125 C 8.566406 -31.566406 8.601562 -31.398438 8.40625 -31.203125 L 7.09375 -30.59375 L 2.59375 -28.59375 C 1.726562 -28.132812 1.046875 -27.835938 0.546875 -27.703125 C 0.046875 -27.566406 -0.46875 -27.429688 -1 -27.296875 Z M -0.203125 -30.59375 C -0.265625 -30.53125 -0.148438 -30.546875 0.140625 -30.640625 C 0.441406 -30.742188 0.863281 -30.929688 1.40625 -31.203125 C 1.863281 -31.460938 2.375 -31.773438 2.9375 -32.140625 C 3.507812 -32.515625 3.832031 -32.734375 3.90625 -32.796875 C 3.90625 -32.929688 3.71875 -32.914062 3.34375 -32.75 C 2.976562 -32.582031 2.628906 -32.429688 2.296875 -32.296875 C 1.960938 -32.234375 1.476562 -31.96875 0.84375 -31.5 C 0.21875 -31.03125 -0.128906 -30.726562 -0.203125 -30.59375 Z M -0.203125 -30.59375 "/></g></g></g><path stroke-linecap="butt" transform="matrix(0.749982, -0.00520926, 0.00520926, 0.749982, 84.417129, 193.820452)" fill="none" stroke-linejoin="miter" d="M -0.00235132 0.49981 L 277.483518 0.500054 " stroke="#004d24" stroke-width="1" stroke-opacity="1" stroke-miterlimit="4"/><g fill="#004d24" fill-opacity="1"><g transform="translate(165.028317, 211.577972)"><g><path d="M 3.609375 -5.59375 C 4.265625 -5.59375 4.769531 -5.453125 5.125 -5.171875 C 5.488281 -4.890625 5.671875 -4.484375 5.671875 -3.953125 C 5.671875 -3.484375 5.566406 -3.078125 5.359375 -2.734375 C 5.148438 -2.398438 4.847656 -2.144531 4.453125 -1.96875 C 4.054688 -1.789062 3.585938 -1.703125 3.046875 -1.703125 L 1.546875 -1.703125 L 1.21875 0 L 0.421875 0 L 1.53125 -5.59375 Z M 3.0625 -2.390625 C 3.632812 -2.390625 4.078125 -2.515625 4.390625 -2.765625 C 4.710938 -3.023438 4.875 -3.398438 4.875 -3.890625 C 4.875 -4.222656 4.757812 -4.472656 4.53125 -4.640625 C 4.300781 -4.816406 3.972656 -4.90625 3.546875 -4.90625 L 2.203125 -4.90625 L 1.703125 -2.390625 Z M 3.0625 -2.390625 "/></g></g></g><g fill="#004d24" fill-opacity="1"><g transform="translate(173.204384, 211.577972)"><g><path d="M 2.1875 -4.90625 L 1.84375 -3.1875 L 4.65625 -3.1875 L 4.53125 -2.5 L 1.71875 -2.5 L 1.359375 -0.703125 L 4.625 -0.703125 L 4.484375 0 L 0.421875 0 L 1.53125 -5.59375 L 5.484375 -5.59375 L 5.359375 -4.90625 Z M 2.1875 -4.90625 "/></g></g></g><g fill="#004d24" fill-opacity="1"><g transform="translate(180.964444, 211.577972)"><g><path d="M 5.6875 -3.953125 C 5.6875 -3.410156 5.539062 -2.953125 5.25 -2.578125 C 4.957031 -2.210938 4.546875 -1.960938 4.015625 -1.828125 L 5.03125 0 L 4.1875 0 L 3.203125 -1.71875 L 1.5625 -1.71875 L 1.21875 0 L 0.421875 0 L 1.53125 -5.59375 L 3.625 -5.59375 C 4.28125 -5.59375 4.785156 -5.453125 5.140625 -5.171875 C 5.503906 -4.890625 5.6875 -4.484375 5.6875 -3.953125 Z M 3.078125 -2.390625 C 3.648438 -2.390625 4.09375 -2.515625 4.40625 -2.765625 C 4.726562 -3.023438 4.890625 -3.398438 4.890625 -3.890625 C 4.890625 -4.222656 4.773438 -4.472656 4.546875 -4.640625 C 4.316406 -4.816406 3.984375 -4.90625 3.546875 -4.90625 L 2.203125 -4.90625 L 1.703125 -2.390625 Z M 3.078125 -2.390625 "/></g></g></g><g fill="#004d24" fill-opacity="1"><g transform="translate(189.18051, 211.577972)"><g><path d="M 2.140625 0.0625 C 1.722656 0.0625 1.320312 0 0.9375 -0.125 C 0.550781 -0.25 0.253906 -0.410156 0.046875 -0.609375 L 0.40625 -1.25 C 0.613281 -1.050781 0.878906 -0.894531 1.203125 -0.78125 C 1.535156 -0.664062 1.875 -0.609375 2.21875 -0.609375 C 2.675781 -0.609375 3.039062 -0.691406 3.3125 -0.859375 C 3.59375 -1.035156 3.734375 -1.269531 3.734375 -1.5625 C 3.734375 -1.726562 3.675781 -1.863281 3.5625 -1.96875 C 3.457031 -2.070312 3.328125 -2.15625 3.171875 -2.21875 C 3.015625 -2.28125 2.796875 -2.359375 2.515625 -2.453125 C 2.160156 -2.554688 1.875 -2.65625 1.65625 -2.75 C 1.4375 -2.84375 1.25 -2.984375 1.09375 -3.171875 C 0.9375 -3.367188 0.859375 -3.617188 0.859375 -3.921875 C 0.859375 -4.273438 0.957031 -4.582031 1.15625 -4.84375 C 1.351562 -5.101562 1.625 -5.300781 1.96875 -5.4375 C 2.320312 -5.582031 2.726562 -5.65625 3.1875 -5.65625 C 3.53125 -5.65625 3.859375 -5.613281 4.171875 -5.53125 C 4.484375 -5.457031 4.753906 -5.34375 4.984375 -5.1875 L 4.65625 -4.53125 C 4.457031 -4.6875 4.226562 -4.800781 3.96875 -4.875 C 3.707031 -4.945312 3.429688 -4.984375 3.140625 -4.984375 C 2.679688 -4.984375 2.316406 -4.894531 2.046875 -4.71875 C 1.773438 -4.539062 1.640625 -4.300781 1.640625 -4 C 1.640625 -3.832031 1.691406 -3.691406 1.796875 -3.578125 C 1.910156 -3.472656 2.046875 -3.382812 2.203125 -3.3125 C 2.367188 -3.25 2.59375 -3.175781 2.875 -3.09375 C 3.226562 -2.988281 3.515625 -2.890625 3.734375 -2.796875 C 3.953125 -2.703125 4.132812 -2.5625 4.28125 -2.375 C 4.4375 -2.195312 4.515625 -1.96875 4.515625 -1.6875 C 4.515625 -1.320312 4.410156 -1.007812 4.203125 -0.75 C 4.003906 -0.488281 3.726562 -0.285156 3.375 -0.140625 C 3.019531 -0.00390625 2.609375 0.0625 2.140625 0.0625 Z M 2.140625 0.0625 "/></g></g></g><g fill="#004d24" fill-opacity="1"><g transform="translate(196.548569, 211.577972)"><g><path d="M 3.109375 0.0625 C 2.554688 0.0625 2.082031 -0.0351562 1.6875 -0.234375 C 1.300781 -0.429688 1.003906 -0.707031 0.796875 -1.0625 C 0.585938 -1.414062 0.484375 -1.828125 0.484375 -2.296875 C 0.484375 -2.921875 0.625 -3.488281 0.90625 -4 C 1.1875 -4.507812 1.582031 -4.910156 2.09375 -5.203125 C 2.613281 -5.503906 3.207031 -5.65625 3.875 -5.65625 C 4.425781 -5.65625 4.898438 -5.554688 5.296875 -5.359375 C 5.691406 -5.171875 5.992188 -4.898438 6.203125 -4.546875 C 6.410156 -4.191406 6.515625 -3.773438 6.515625 -3.296875 C 6.515625 -2.679688 6.375 -2.113281 6.09375 -1.59375 C 5.8125 -1.082031 5.410156 -0.675781 4.890625 -0.375 C 4.378906 -0.0820312 3.785156 0.0625 3.109375 0.0625 Z M 3.1875 -0.640625 C 3.6875 -0.640625 4.128906 -0.757812 4.515625 -1 C 4.898438 -1.238281 5.195312 -1.554688 5.40625 -1.953125 C 5.613281 -2.347656 5.71875 -2.78125 5.71875 -3.25 C 5.71875 -3.769531 5.550781 -4.179688 5.21875 -4.484375 C 4.894531 -4.796875 4.425781 -4.953125 3.8125 -4.953125 C 3.3125 -4.953125 2.867188 -4.832031 2.484375 -4.59375 C 2.097656 -4.363281 1.800781 -4.046875 1.59375 -3.640625 C 1.382812 -3.242188 1.28125 -2.8125 1.28125 -2.34375 C 1.28125 -1.820312 1.441406 -1.40625 1.765625 -1.09375 C 2.097656 -0.789062 2.570312 -0.640625 3.1875 -0.640625 Z M 3.1875 -0.640625 "/></g></g></g><g fill="#004d24" fill-opacity="1"><g transform="translate(205.668647, 211.577972)"><g><path d="M 6.359375 -5.59375 L 5.234375 0 L 4.578125 0 L 2.078125 -4.3125 L 1.21875 0 L 0.421875 0 L 1.53125 -5.59375 L 2.1875 -5.59375 L 4.703125 -1.28125 L 5.546875 -5.59375 Z M 6.359375 -5.59375 "/></g></g></g><g fill="#004d24" fill-opacity="1"><g transform="translate(214.564716, 211.577972)"><g><path d="M 4.3125 -1.40625 L 1.3125 -1.40625 L 0.4375 0 L -0.4375 0 L 3.234375 -5.59375 L 4.03125 -5.59375 L 5.4375 0 L 4.640625 0 Z M 4.15625 -2.046875 L 3.484375 -4.796875 L 1.734375 -2.046875 Z M 4.15625 -2.046875 "/></g></g></g><g fill="#004d24" fill-opacity="1"><g transform="translate(222.820778, 211.577972)"><g><path d="M 1.53125 -5.59375 L 2.34375 -5.59375 L 1.359375 -0.703125 L 4.390625 -0.703125 L 4.25 0 L 0.421875 0 Z M 1.53125 -5.59375 "/></g></g></g><g fill="#004d24" fill-opacity="1"><g transform="translate(229.972833, 211.577972)"><g/></g></g><g fill="#004d24" fill-opacity="1"><g transform="translate(234.524864, 211.577972)"><g><path d="M 9.453125 -5.59375 L 6.46875 0 L 5.609375 0 L 4.984375 -4.453125 L 2.546875 0 L 1.703125 0 L 0.953125 -5.59375 L 1.734375 -5.59375 L 2.34375 -1.03125 L 4.828125 -5.59375 L 5.5625 -5.59375 L 6.1875 -1.03125 L 8.65625 -5.59375 Z M 9.453125 -5.59375 "/></g></g></g><g fill="#004d24" fill-opacity="1"><g transform="translate(245.932964, 211.577972)"><g><path d="M 2.1875 -4.90625 L 1.84375 -3.1875 L 4.65625 -3.1875 L 4.53125 -2.5 L 1.71875 -2.5 L 1.359375 -0.703125 L 4.625 -0.703125 L 4.484375 0 L 0.421875 0 L 1.53125 -5.59375 L 5.484375 -5.59375 L 5.359375 -4.90625 Z M 2.1875 -4.90625 "/></g></g></g><g fill="#004d24" fill-opacity="1"><g transform="translate(253.693023, 211.577972)"><g><path d="M 4.75 -2.890625 C 5 -2.804688 5.191406 -2.664062 5.328125 -2.46875 C 5.472656 -2.28125 5.546875 -2.039062 5.546875 -1.75 C 5.546875 -1.1875 5.328125 -0.753906 4.890625 -0.453125 C 4.453125 -0.148438 3.859375 0 3.109375 0 L 0.421875 0 L 1.53125 -5.59375 L 4.015625 -5.59375 C 4.578125 -5.59375 5.007812 -5.488281 5.3125 -5.28125 C 5.625 -5.070312 5.78125 -4.769531 5.78125 -4.375 C 5.78125 -4.007812 5.6875 -3.695312 5.5 -3.4375 C 5.3125 -3.1875 5.0625 -3.003906 4.75 -2.890625 Z M 2.203125 -4.953125 L 1.84375 -3.15625 L 3.484375 -3.15625 C 3.929688 -3.15625 4.285156 -3.25 4.546875 -3.4375 C 4.816406 -3.625 4.953125 -3.890625 4.953125 -4.234375 C 4.953125 -4.472656 4.859375 -4.648438 4.671875 -4.765625 C 4.484375 -4.890625 4.207031 -4.953125 3.84375 -4.953125 Z M 3.171875 -0.640625 C 3.671875 -0.640625 4.054688 -0.734375 4.328125 -0.921875 C 4.609375 -1.117188 4.75 -1.394531 4.75 -1.75 C 4.75 -2.019531 4.648438 -2.210938 4.453125 -2.328125 C 4.265625 -2.453125 3.972656 -2.515625 3.578125 -2.515625 L 1.71875 -2.515625 L 1.34375 -0.640625 Z M 3.171875 -0.640625 "/></g></g></g><g fill="#004d24" fill-opacity="1"><g transform="translate(262.149093, 211.577972)"><g><path d="M 3.609375 -5.59375 C 4.265625 -5.59375 4.769531 -5.453125 5.125 -5.171875 C 5.488281 -4.890625 5.671875 -4.484375 5.671875 -3.953125 C 5.671875 -3.484375 5.566406 -3.078125 5.359375 -2.734375 C 5.148438 -2.398438 4.847656 -2.144531 4.453125 -1.96875 C 4.054688 -1.789062 3.585938 -1.703125 3.046875 -1.703125 L 1.546875 -1.703125 L 1.21875 0 L 0.421875 0 L 1.53125 -5.59375 Z M 3.0625 -2.390625 C 3.632812 -2.390625 4.078125 -2.515625 4.390625 -2.765625 C 4.710938 -3.023438 4.875 -3.398438 4.875 -3.890625 C 4.875 -4.222656 4.757812 -4.472656 4.53125 -4.640625 C 4.300781 -4.816406 3.972656 -4.90625 3.546875 -4.90625 L 2.203125 -4.90625 L 1.703125 -2.390625 Z M 3.0625 -2.390625 "/></g></g></g><g fill="#004d24" fill-opacity="1"><g transform="translate(270.325163, 211.577972)"><g><path d="M 4.3125 -1.40625 L 1.3125 -1.40625 L 0.4375 0 L -0.4375 0 L 3.234375 -5.59375 L 4.03125 -5.59375 L 5.4375 0 L 4.640625 0 Z M 4.15625 -2.046875 L 3.484375 -4.796875 L 1.734375 -2.046875 Z M 4.15625 -2.046875 "/></g></g></g><g fill="#004d24" fill-opacity="1"><g transform="translate(278.58123, 211.577972)"><g><path d="M 4.859375 -2.828125 L 5.625 -2.828125 L 5.1875 -0.625 C 4.925781 -0.40625 4.613281 -0.234375 4.25 -0.109375 C 3.894531 0.00390625 3.53125 0.0625 3.15625 0.0625 C 2.613281 0.0625 2.140625 -0.0351562 1.734375 -0.234375 C 1.328125 -0.429688 1.015625 -0.707031 0.796875 -1.0625 C 0.585938 -1.414062 0.484375 -1.828125 0.484375 -2.296875 C 0.484375 -2.921875 0.625 -3.488281 0.90625 -4 C 1.1875 -4.507812 1.585938 -4.910156 2.109375 -5.203125 C 2.628906 -5.503906 3.234375 -5.65625 3.921875 -5.65625 C 4.410156 -5.65625 4.835938 -5.582031 5.203125 -5.4375 C 5.566406 -5.289062 5.863281 -5.078125 6.09375 -4.796875 L 5.515625 -4.3125 C 5.328125 -4.53125 5.097656 -4.691406 4.828125 -4.796875 C 4.566406 -4.898438 4.253906 -4.953125 3.890625 -4.953125 C 3.367188 -4.953125 2.910156 -4.835938 2.515625 -4.609375 C 2.117188 -4.378906 1.8125 -4.066406 1.59375 -3.671875 C 1.382812 -3.273438 1.28125 -2.832031 1.28125 -2.34375 C 1.28125 -1.820312 1.445312 -1.40625 1.78125 -1.09375 C 2.113281 -0.789062 2.597656 -0.640625 3.234375 -0.640625 C 3.703125 -0.640625 4.125 -0.757812 4.5 -1 Z M 4.859375 -2.828125 "/></g></g></g><g fill="#004d24" fill-opacity="1"><g transform="translate(287.157306, 211.577972)"><g><path d="M 2.1875 -4.90625 L 1.84375 -3.1875 L 4.65625 -3.1875 L 4.53125 -2.5 L 1.71875 -2.5 L 1.359375 -0.703125 L 4.625 -0.703125 L 4.484375 0 L 0.421875 0 L 1.53125 -5.59375 L 5.484375 -5.59375 L 5.359375 -4.90625 Z M 2.1875 -4.90625 "/></g></g></g></svg>